<?xml version="1.0" encoding="utf-8"?>
<svg version="1.1" id="Layer_1" xmlns="http://www.w3.org/2000/svg" xmlns:xlink="http://www.w3.org/1999/xlink" x="0px" y="0px" width="134px" height="134px" viewBox="0 0 134 134" style="enable-background:new 0 0 134 134" xml:space="preserve" class="ng-hide"><style type="text/css">.st0 {fill:#D2D2D2;} .st1 {opacity:0.2;} .st2 {fill:#0C0D0D;} .st3 {fill:#666E6E;}</style><circle class="st0" cx="67" cy="67" r="65"></circle><g class="st1"><path class="st2" d="M67,2c35.8411255,0,65,29.1589355,65,65c0,35.8411255-29.1588745,65-65,65S2,102.8411255,2,67
        C2,31.1589355,31.1588745,2,67,2 M67,1C30.5491943,1,1,30.5491943,1,67s29.5491943,66,66,66s66-29.5491943,66-66
        S103.4508057,1,67,1L67,1z"></path></g><g><path class="st3" d="M65.9205093,66.3407974h2.1591034C82.8824081,66.7612,99.0083084,72.4024048,97.3628082,86.689003
        l-1.6180954,13.3218002c-0.8432999,6.8143997-5.2075043,7.8275986-13.9722061,7.8651962H52.2310143
        c-8.7646027-0.0375977-13.1309052-1.0507965-13.9736023-7.8651962L36.6368103,86.689003
        C34.9942093,72.4024048,51.1202087,66.7612,65.9205093,66.3407974z"></path><path class="st3" d="M49.4317093,43.9341011c0-9.8189011,7.9892006-17.8101006,17.8076019-17.8101006
        c9.8218002,0,17.8096008,7.9911995,17.8096008,17.8101006c0,9.8188019-7.9878006,17.8070984-17.8096008,17.8070984
        C57.4209099,61.7411995,49.4317093,53.752903,49.4317093,43.9341011z"></path></g></svg>